#!OML:ASF I:\Actors\actors\Patient Classification 1\Patient 1\Session 1\Subject1.ASF
:FULLY-SPECIFIED
:DEGREES
1463
root 0.795145 17.4834 9.6919 11.5828 -6.97185 -10.3237
lowerback -2.00567 1.82582 5.64931
upperback -8.79989 2.76933 2.79429
thorax -8.01234 1.07904 -0.337659
lowerneck -14.8836 -1.74756 -0.28802
upperneck 30.5526 -4.81736 6.98056
head 12.87 -1.26059 2.00483
rclavicle 6.21202e-015 -1.98785e-015
rhumerus -18.6026 38.9737 -100.623
rradius 96.7554
rwrist 15.4631
rhand 4.83838 -58.0074
rfingers 7.12502
rthumb 30.2158 274.445
lclavicle 6.21202e-015 -1.98785e-015
lhumerus -31.8947 -12.7539 97.2936
lradius 105.411
lwrist -10.0837
lhand -17.8461 -26.0956
lfingers 7.12502
lthumb 8.41881 3.71661
rfemur -7.13154 20.5066 25.0441
rtibia 6.09419
rfoot -12.8068 -18.5526
rtoes -4.45729
lfemur 12.2348 -53.595 -18.4808
ltibia -4.72626
lfoot -53.5956 60.7229
ltoes 29.4612
1464
root 0.795773 17.4756 9.69185 11.675 -7.05205 -10.34
lowerback -2.19492 1.8714 5.74617
upperback -8.83083 2.82061 2.83684
thorax -7.93331 1.10088 -0.342497
lowerneck -14.9447 -1.74223 -0.351056
upperneck 30.8348 -4.79468 6.91418
head 12.9986 -1.25814 2.00013
rclavicle 3.2054e-015 -1.39149e-015
rhumerus -19.1529 38.686 -100.499
rradius 96.8368
rwrist 15.5933
rhand 4.44298 -57.8978
rfingers 7.12502
rthumb 29.8385 274.486
lclavicle 3.2054e-015 -1.39149e-015
lhumerus -32.4897 -13.0454 98.013
lradius 104.752
lwrist -11.7572
lhand -17.3399 -26.8373
lfingers 7.12502
lthumb 8.90739 2.95464
rfemur -7.31614 20.4986 24.9994
rtibia 6.22078
rfoot -12.8107 -18.4306
rtoes -4.52363
lfemur 12.0425 -53.4504 -18.3251
ltibia -4.72571
lfoot -53.6234 60.6225
ltoes 29.5534
1465
root 0.800091 17.4744 9.69624 11.4576 -6.61456 -10.2417
lowerback -2.1839 1.72907 5.82166
upperback -8.79525 2.63561 2.91131
thorax -7.91081 1.00824 -0.298319
lowerneck -15.0229 -1.73184 -0.424459
upperneck 31.2287 -4.74458 6.77069
head 13.1749 -1.25219 1.97392
rclavicle 1.55549e-014 2.94201e-014
rhumerus -19.909 38.2804 -100.426
rradius 96.967
rwrist 15.6899
rhand 4.36358 -57.6849
rfingers 7.12502
rthumb 29.7628 274.685
lclavicle 1.55549e-014 2.94201e-014
lhumerus -33.0847 -13.3829 98.7879
lradius 104.079
lwrist -13.5531
lhand -17.1386 -27.5108
lfingers 7.12502
lthumb 9.10161 2.27279
rfemur -6.95353 20.4853 25.0209
rtibia 6.06272
rfoot -12.9162 -18.8428
rtoes -4.25419
lfemur 11.7747 -52.8825 -18.1126
ltibia -4.70242
lfoot -51.4975 60.3014
ltoes 28.7594
1466
root 0.789744 17.4866 9.71115 10.8177 -5.89426 -10.0323
lowerback -1.97185 1.41713 5.6281
upperback -8.62914 2.228 3.0085
thorax -7.87833 0.827389 -0.0771481
lowerneck -15.0664 -1.70403 -0.485307
upperneck 31.5646 -4.66775 6.63209
head 13.3192 -1.2354 1.95011
rclavicle -5.93869e-015 -2.22639e-014
rhumerus -20.4969 38.0663 -100.391
rradius 97.0238
rwrist 15.5261
rhand 4.65978 -57.5965
rfingers 7.12502
rthumb 30.0454 274.824
lclavicle -5.93869e-015 -2.22639e-014
lhumerus -33.607 -13.7709 99.4234
lradius 103.381
lwrist -15.2202
lhand -17.0304 -28.1433
lfingers 7.12502
lthumb 9.20597 1.63571
rfemur -5.78674 20.9099 25.2563
rtibia 5.56294
rfoot -13.1987 -19.9646
rtoes -3.44585
lfemur 12.193 -52.2001 -18.3971
ltibia -4.83026
lfoot -48.2706 59.9995
ltoes 27.2922
1467
root 0.784649 17.4899 9.71698 10.5757 -5.62563 -9.91788
lowerback -2.00173 1.2677 5.64551
upperback -8.56646 2.02148 3.00673
thorax -7.79981 0.726334 -0.079015
lowerneck -15.1063 -1.66354 -0.510717
upperneck 31.8321 -4.62299 6.62797
head 13.4409 -1.21282 1.96659
rclavicle -2.18663e-015 -8.74653e-015
rhumerus -20.8005 38.0008 -100.439
rradius 96.9202
rwrist 15.3171
rhand 5.12512 -57.6631
rfingers 7.12502
rthumb 30.4893 274.839
lclavicle -2.18663e-015 -8.74653e-015
lhumerus -34.0294 -14.2365 99.8319
lradius 102.662
lwrist -16.7724
lhand -16.6704 -28.5914
lfingers 7.12502
lthumb 9.55337 1.17204
rfemur -5.36494 21.0947 25.3104
rtibia 5.41305
rfoot -13.3738 -20.3793
rtoes -2.93288
lfemur 12.2363 -51.7412 -18.4297
ltibia -4.88541
lfoot -46.4947 59.8528
ltoes 26.459
1468
root 0.782687 17.4887 9.71706 10.5345 -5.58163 -9.87975
lowerback -2.14384 1.22311 5.82417
upperback -8.56469 1.94904 2.94133
thorax -7.7124 0.677146 -0.240683
lowerneck -15.118 -1.62816 -0.40331
upperneck 32.0805 -4.61496 6.59658
head 13.5474 -1.19491 1.94275
rclavicle 2.29099e-014 -9.14409e-015
rhumerus -20.9356 38.0217 -100.504
rradius 96.7265
rwrist 15.2122
rhand 4.93188 -57.5974
rfingers 7.12502
rthumb 30.305 274.871
lclavicle 2.29099e-014 -9.14409e-015
lhumerus -34.4517 -14.7971 100.101
lradius 101.989
lwrist -18.2215
lhand -15.8084 -28.5091
lfingers 7.12502
lthumb 10.385 1.21446
rfemur -5.31791 21.175 25.3068
rtibia 5.44086
rfoot -13.4606 -20.4674
rtoes -2.72768
lfemur 12.1448 -51.4872 -18.3566
ltibia -4.90299
lfoot -45.8548 59.7412
ltoes 26.2356
1469
root 0.78313 17.486 9.72176 10.4323 -5.62043 -9.74402
lowerback -2.31314 1.20708 5.8913
upperback -8.51514 1.90659 2.87303
thorax -7.55755 0.652818 -0.344853
lowerneck -15.1054 -1.59941 -0.367881
upperneck 32.2702 -4.58247 6.54714
head 13.6229 -1.17927 1.92684
rclavicle -1.20016e-014 1.98785e-015
rhumerus -20.9918 38.0877 -100.521
rradius 96.5333
rwrist 15.2777
rhand 4.49696 -57.4818
rfingers 7.12502
rthumb 29.89 274.911
lclavicle -1.20016e-014 1.98785e-015
lhumerus -34.7823 -15.3396 100.356
lradius 101.378
lwrist -19.4726
lhand -14.8569 -28.3664
lfingers 7.12502
lthumb 11.3028 1.30908
rfemur -5.14878 21.1298 25.2013
rtibia 5.38642
rfoot -13.464 -20.4149
rtoes -2.82728
lfemur 12.5014 -51.6247 -18.8493
ltibia -4.89385
lfoot -46.3546 59.7561
ltoes 26.5297
1470
root 0.784388 17.4808 9.7316 10.2648 -5.73808 -9.43505
lowerback -2.5056 1.19747 5.73226
upperback -8.4179 1.86416 2.81424
thorax -7.34118 0.64641 -0.313759
lowerneck -15.0979 -1.56566 -0.378488
upperneck 32.4298 -4.49843 6.42043
head 13.6821 -1.15781 1.89549
rclavicle 1.76421e-015 5.80451e-014
rhumerus -20.9771 38.2219 -100.462
rradius 96.364
rwrist 15.4645
rhand 4.56993 -57.6555
rfingers 7.12502
rthumb 29.9597 274.75
lclavicle 1.76421e-015 5.80451e-014
lhumerus -34.9596 -15.8395 100.651
lradius 100.777
lwrist -20.6526
lhand -14.4648 -28.4304
lfingers 7.12502
lthumb 11.681 1.22399
rfemur -4.85129 20.9806 24.8996
rtibia 5.21229
rfoot -13.4115 -20.2219
rtoes -3.06878
lfemur 13.249 -52.0822 -19.9486
ltibia -4.84107
lfoot -47.4979 59.9909
ltoes 26.9863
1471
root 0.781833 17.4775 9.73375 10.1892 -5.84962 -9.23721
lowerback -2.59282 1.14917 5.59853
upperback -8.37932 1.78881 2.84975
thorax -7.2551 0.621569 -0.198338
lowerneck -15.193 -1.51658 -0.421362
upperneck 32.6683 -4.36904 6.23289
head 13.7951 -1.12557 1.85421
rclavicle -9.39258e-015 -4.07509e-015
rhumerus -20.9111 38.5009 -100.371
rradius 96.179
rwrist 15.6526
rhand 4.43435 -57.9587
rfingers 7.12502
rthumb 29.8303 274.423
lclavicle -9.39258e-015 -4.07509e-015
lhumerus -35.0355 -16.2254 100.915
lradius 100.151
lwrist -21.7689
lhand -14.727 -28.2112
lfingers 7.12502
lthumb 11.4281 1.4573
rfemur -4.73538 20.9427 24.6925
rtibia 5.13152
rfoot -13.3864 -20.0884
rtoes -3.06878
lfemur 13.6105 -52.3036 -20.5356
ltibia -4.81004
lfoot -48.0212 60.156
ltoes 27.1695
1472
root 0.776715 17.4773 9.72824 10.186 -5.96536 -9.2246
lowerback -2.56896 1.07922 5.5989
upperback -8.38351 1.70278 2.96002
thorax -7.28121 0.582224 -0.0801021
lowerneck -15.3974 -1.45693 -0.539431
upperneck 32.959 -4.2295 6.11249
head 13.96 -1.08693 1.85584
rclavicle 4.8578e-015 3.27498e-014
rhumerus -20.81 38.8042 -100.305
rradius 95.9563
rwrist 15.876
rhand 4.46436 -58.062
rfingers 7.12502
rthumb 29.8589 274.325
lclavicle 4.8578e-015 3.27498e-014
lhumerus -34.9922 -16.4577 101.08
lradius 99.6403
lwrist -22.4393
lhand -14.8012 -27.5951
lfingers 7.12502
lthumb 11.3565 2.07742
rfemur -4.77485 21.0527 24.6819
rtibia 5.18122
rfoot -13.4206 -20.0513
rtoes -2.71985
lfemur 13.7298 -52.4117 -20.6507
ltibia -4.81907
lfoot -48.2431 60.3199
ltoes 27.1275
1473
root 0.772591 17.4773 9.72219 10.1695 -6.08716 -9.24296
lowerback -2.51813 1.05734 5.6559
upperback -8.40561 1.68294 3.02024
thorax -7.33713 0.569194 -0.0483129
lowerneck -15.511 -1.43732 -0.554723
upperneck 33.1696 -4.16867 5.98121
head 14.072 -1.07472 1.82023
rclavicle 2.36802e-014 -2.38045e-014
rhumerus -20.813 38.8351 -100.322
rradius 95.7536
rwrist 16.2497
rhand 4.75252 -58.1292
rfingers 7.12502
rthumb 30.1339 274.308
lclavicle 2.36802e-014 -2.38045e-014
lhumerus -34.9063 -16.7073 101.214
lradius 99.3091
lwrist -22.8043
lhand -14.404 -26.9143
lfingers 7.12502
lthumb 11.7396 2.73677
rfemur -4.79815 21.1227 24.7102
rtibia 5.22823
rfoot -13.4193 -19.9722
rtoes -2.5828
lfemur 13.9995 -52.7079 -20.8894
ltibia -4.80717
lfoot -48.8969 60.5747
ltoes 27.2079
1474
root 0.76902 17.4761 9.71714 10.1448 -6.22591 -9.2599
lowerback -2.48128 1.09473 5.71113
upperback -8.44146 1.74012 3.03873
thorax -7.39539 0.592702 -0.0618579
lowerneck -15.4565 -1.47162 -0.521626
upperneck 33.2068 -4.19627 5.87668
head 14.0735 -1.0974 1.76828
rclavicle 3.80176e-015 3.00662e-014
rhumerus -20.9405 38.5921 -100.335
rradius 95.5979
rwrist 16.7129
rhand 4.71518 -58.4833
rfingers 7.12502
rthumb 30.0983 273.947
lclavicle 3.80176e-015 3.00662e-014
lhumerus -34.7769 -16.9869 101.341
lradius 99.0762
lwrist -23.312
lhand -13.6324 -26.1249
lfingers 7.12502
lthumb 12.4835 3.4822
rfemur -4.81084 21.1096 24.7408
rtibia 5.27047
rfoot -13.3268 -19.822
rtoes -2.74419
lfemur 14.3121 -52.9897 -21.1745
ltibia -4.79378
lfoot -49.7745 60.74
ltoes 27.5246
1475
root 0.764396 17.4715 9.71036 9.90269 -6.43791 -8.75073
lowerback -1.67173 1.20032 5.45104
upperback -8.86969 1.94865 2.7084
thorax -8.32157 0.674542 -0.287505
lowerneck -15.0066 -1.61073 -0.601779
upperneck 33.3616 -4.46843 6.10914
head 14.0652 -1.19987 1.83733
rclavicle 5.7896e-015 6.65929e-015
rhumerus -21.9322 37.7672 -100.954
rradius 95.4706
rwrist 17.2067
rhand 4.75247 -58.4199
rfingers 7.12502
rthumb 30.1338 274.017
lclavicle 5.7896e-015 6.65929e-015
lhumerus -35.3673 -17.4644 101.517
lradius 98.9929
lwrist -23.9585
lhand -12.3882 -25.3489
lfingers 7.12502
lthumb 13.6829 4.18133
rfemur -4.63549 21.0925 24.2059
rtibia 5.25661
rfoot -13.2541 -19.7203
rtoes -2.67172
lfemur 14.7842 -53.1021 -22.2224
ltibia -4.68953
lfoot -50.3882 60.765
ltoes 27.8325
1476
root 0.758834 17.4642 9.69938 9.46454 -6.628 -7.74295
lowerback -1.28397 1.14833 4.41034
upperback -8.81541 1.85519 2.47012
thorax -8.50104 0.691752 0.0351237
lowerneck -14.9646 -1.62633 -0.795425
upperneck 33.3143 -4.50177 6.31494
head 14.0475 -1.21319 1.94863
rclavicle -7.95139e-015 1.54058e-014
rhumerus -22.0036 37.5482 -100.979
rradius 95.2598
rwrist 17.395
rhand 4.96333 -57.9172
rfingers 7.12502
rthumb 30.335 274.557
lclavicle -7.95139e-015 1.54058e-014
lhumerus -34.9808 -17.6429 101.378
lradius 98.8059
lwrist -24.6273
lhand -11.2038 -24.9631
lfingers 7.12502
lthumb 14.8242 4.48663
rfemur -4.2993 21.0476 23.1242
rtibia 5.16863
rfoot -13.2528 -19.6678
rtoes -2.43561
lfemur 15.2714 -53.0679 -23.8751
ltibia -4.46381
lfoot -50.4856 60.7042
ltoes 27.952
